<svg width="20" height="20" viewBox="0 0 20 20" fill="none" xmlns="http://www.w3.org/2000/svg">
<path d="M7.77437 0C3.48173 0 0.00112915 3.48059 0.00112915 7.77327C0.00112915 12.0659 3.48172 15.5465 7.77441 15.5465C9.42511 15.5465 10.956 15.0317 12.2143 14.1547L12.2152 14.1537L17.9802 19.9188C18.0872 20.0257 18.2573 20.0285 18.3671 19.9188L19.9208 18.365C20.0278 18.258 20.0223 18.0806 19.9199 17.9782L14.1558 12.2141C15.0328 10.9548 15.5476 9.42393 15.5476 7.77327C15.5476 3.48059 12.0671 0 7.77437 0ZM7.77437 13.7175C4.4913 13.7175 1.83011 11.0563 1.83011 7.77327C1.83011 4.4902 4.49133 1.82901 7.77437 1.82901C11.0574 1.82901 13.7186 4.4902 13.7186 7.77327C13.7186 11.0563 11.0574 13.7175 7.77437 13.7175Z" fill="black"/>
</svg>
