<svg width="38" height="36" viewBox="0 0 38 36" fill="none" xmlns="http://www.w3.org/2000/svg">
<path d="M31.0288 20.9351H28.0446H6.97131C4.60774 20.9351 2.68488 22.7568 2.68488 24.996C2.68488 27.2352 4.60781 29.0568 6.97131 29.0568H9.48377L9.15951 29.3064C8.78611 29.5938 8.61808 30.0489 8.72095 30.4941C8.82382 30.9393 9.17717 31.2864 9.64319 31.3997L9.8116 31.4406L8.98049 34.5083C8.87859 34.8845 9.11787 35.2676 9.51487 35.3642L12.039 35.9779C12.0998 35.9928 12.1617 36 12.2235 36C12.3553 36 12.486 35.9667 12.6013 35.9021C12.7708 35.8071 12.8935 35.6522 12.9424 35.4717L13.7735 32.4039L13.942 32.4448C14.408 32.5581 14.894 32.4152 15.2105 32.0719C15.527 31.7286 15.611 31.2531 15.4299 30.831L14.6686 29.0568H28.0446H31.0288V29.0568C33.3923 29.0568 35.3152 27.2352 35.3152 24.996C35.3152 22.7568 33.3922 20.9351 31.0288 20.9351ZM9.97235 30.847L9.97206 30.848C9.97221 30.8476 9.97228 30.8471 9.97243 30.8467C9.97235 30.8469 9.97235 30.8469 9.97235 30.847ZM13.5165 30.8896C13.2997 30.8367 13.0742 30.8671 12.8814 30.9751C12.6888 31.083 12.5521 31.2556 12.4965 31.4608L11.6891 34.4411L10.6027 34.1769L11.41 31.1969C11.4658 30.9914 11.4337 30.7777 11.3196 30.5951C11.2056 30.4126 11.0234 30.2831 10.8071 30.2308L10.4312 30.1393L11.8379 29.0568L12.7613 28.3462L13.0662 29.0568L13.8917 30.9808L13.5165 30.8896ZM27.3023 27.6506H14.0652L13.759 26.9369C13.6704 26.7305 13.4838 26.576 13.2559 26.5207C13.0279 26.4651 12.786 26.5154 12.6034 26.6559L11.311 27.6506H6.97131C5.42622 27.6506 4.16925 26.4597 4.16925 24.996C4.16925 23.5322 5.4263 22.3413 6.97131 22.3413H27.3024V27.6506H27.3023ZM31.0288 27.6506H28.7868V22.3413H31.0288C32.5739 22.3413 33.8308 23.5322 33.8308 24.996C33.8308 26.4597 32.5737 27.6506 31.0288 27.6506Z" fill="white"/>
<path d="M31.459 23.3852C31.2048 23.0806 30.7381 23.0288 30.4165 23.2697C30.095 23.5106 30.0405 23.9528 30.2947 24.2574L30.7945 24.8564L30.2947 25.4553C30.0405 25.7599 30.095 26.2021 30.4165 26.443C30.5528 26.545 30.7151 26.5945 30.8763 26.5945C31.0955 26.5945 31.3125 26.503 31.459 26.3275L32.3229 25.2924C32.5363 25.0368 32.5363 24.6758 32.3229 24.4203L31.459 23.3852Z" fill="white"/>
<path d="M7.19767 25.2647C7.21623 25.3076 7.23923 25.3483 7.26595 25.3863C7.29341 25.425 7.32459 25.4608 7.35873 25.4932C7.39287 25.5256 7.43072 25.5551 7.47154 25.5804C7.51162 25.6057 7.55466 25.6275 7.5992 25.6451C7.64447 25.6626 7.69049 25.676 7.73799 25.6851C7.78623 25.6943 7.83447 25.6992 7.88345 25.6992C7.9317 25.6992 7.97994 25.6943 8.02818 25.6851C8.07568 25.676 8.12244 25.6626 8.16697 25.6451C8.2115 25.6275 8.25529 25.6057 8.29537 25.5804C8.33545 25.5551 8.37404 25.5256 8.40818 25.4932C8.44232 25.4608 8.47349 25.425 8.50021 25.3863C8.52693 25.3483 8.54994 25.3076 8.56849 25.2647C8.58705 25.2225 8.60115 25.1783 8.6108 25.1333C8.62045 25.0882 8.62564 25.0418 8.62564 24.9962C8.62564 24.9504 8.62045 24.904 8.6108 24.8583C8.60115 24.814 8.58705 24.7697 8.56849 24.7269C8.54994 24.6846 8.52693 24.6439 8.50021 24.6059C8.47349 24.5672 8.44232 24.5313 8.40818 24.499C8.37404 24.4666 8.33545 24.4371 8.29537 24.4111C8.25529 24.3858 8.2115 24.364 8.16697 24.3464C8.12244 24.3288 8.07568 24.3155 8.02818 24.3063C7.78697 24.2607 7.53092 24.3351 7.35873 24.499C7.32459 24.5313 7.29341 24.5672 7.26595 24.6059C7.23923 24.6439 7.21623 24.6846 7.19767 24.7269C7.17912 24.7697 7.16502 24.814 7.15537 24.8583C7.14572 24.904 7.14127 24.9504 7.14127 24.9962C7.14127 25.0418 7.14572 25.0883 7.15537 25.1333C7.16502 25.1783 7.17912 25.2226 7.19767 25.2647Z" fill="white"/>
<path d="M11.1447 25.2647C11.1633 25.3076 11.1863 25.3483 11.213 25.3863C11.2405 25.425 11.2716 25.4608 11.3058 25.4932C11.3399 25.5256 11.3778 25.5551 11.4186 25.5804C11.4587 25.6057 11.5017 25.6275 11.5462 25.6451C11.5915 25.6626 11.6383 25.676 11.685 25.6851C11.7333 25.6943 11.7823 25.6992 11.8305 25.6992C11.8787 25.6992 11.9277 25.6943 11.9752 25.6851C12.0227 25.676 12.0695 25.6626 12.114 25.6451C12.1593 25.6275 12.2023 25.6057 12.2424 25.5804C12.2832 25.5551 12.3211 25.5256 12.3552 25.4932C12.3894 25.4608 12.4205 25.425 12.4473 25.3863C12.474 25.3483 12.497 25.3076 12.5155 25.2647C12.5341 25.2225 12.5482 25.1783 12.5579 25.1333C12.5675 25.0882 12.5727 25.0418 12.5727 24.9961C12.5727 24.9504 12.5675 24.904 12.5579 24.8583C12.5482 24.814 12.5341 24.7697 12.5155 24.7269C12.497 24.6846 12.474 24.6439 12.4473 24.6059C12.4205 24.5672 12.3894 24.5313 12.3552 24.499C12.183 24.3351 11.927 24.2606 11.685 24.3063C11.6383 24.3155 11.5915 24.3288 11.5462 24.3464C11.5017 24.364 11.4587 24.3858 11.4186 24.4111C11.3778 24.4371 11.3399 24.4666 11.3058 24.499C11.2716 24.5313 11.2405 24.5672 11.213 24.6059C11.1863 24.6439 11.1633 24.6846 11.1447 24.7269C11.1262 24.7697 11.1121 24.814 11.1024 24.8583C11.0928 24.904 11.0883 24.9504 11.0883 24.9961C11.0883 25.0418 11.0928 25.0883 11.1024 25.1333C11.1121 25.1783 11.1262 25.2226 11.1447 25.2647Z" fill="white"/>
<path d="M15.0924 25.2647C15.1109 25.3076 15.1339 25.3483 15.1606 25.3863C15.1874 25.425 15.2185 25.4608 15.2527 25.4932C15.2868 25.5256 15.3247 25.5551 15.3655 25.5804C15.4056 25.6057 15.4486 25.6275 15.4939 25.6451C15.5384 25.6626 15.5852 25.676 15.6327 25.6851C15.6802 25.6943 15.7292 25.6992 15.7774 25.6992C15.8256 25.6992 15.8746 25.6943 15.9221 25.6851C15.9696 25.676 16.0164 25.6626 16.0609 25.6451C16.1062 25.6275 16.1492 25.6057 16.1893 25.5804C16.2301 25.5551 16.268 25.5256 16.3021 25.4932C16.3363 25.4608 16.3674 25.425 16.3942 25.3863C16.4209 25.3483 16.4439 25.3076 16.4624 25.2647C16.481 25.2225 16.4951 25.1783 16.5047 25.1333C16.5144 25.0882 16.5196 25.0418 16.5196 24.9961C16.5196 24.9504 16.5144 24.904 16.5047 24.8583C16.4958 24.814 16.481 24.7697 16.4624 24.7269C16.4439 24.6846 16.4209 24.6439 16.3942 24.6059C16.3674 24.5672 16.3363 24.5313 16.3021 24.499C16.1299 24.3351 15.8731 24.2606 15.6327 24.3063C15.5852 24.3155 15.5384 24.3288 15.4931 24.3464C15.4486 24.364 15.4056 24.3858 15.3655 24.4111C15.3247 24.4371 15.2868 24.4666 15.2527 24.499C15.2185 24.5313 15.1874 24.5672 15.1606 24.6059C15.1339 24.6439 15.1109 24.6846 15.0924 24.7269C15.0738 24.7697 15.059 24.814 15.0501 24.8583C15.0404 24.904 15.0352 24.9504 15.0352 24.9961C15.0352 25.0418 15.0404 25.0883 15.0501 25.1333C15.059 25.1783 15.0738 25.2226 15.0924 25.2647Z" fill="white"/>
<path d="M19.0394 25.2647C19.0579 25.3076 19.081 25.3483 19.1077 25.3863C19.1344 25.425 19.1656 25.4608 19.1997 25.4932C19.2338 25.5256 19.2717 25.5551 19.3125 25.5804C19.3526 25.6057 19.3956 25.6275 19.4409 25.6451C19.4854 25.6626 19.5322 25.676 19.5797 25.6851C19.6272 25.6943 19.6762 25.6992 19.7244 25.6992C19.7727 25.6992 19.8217 25.6943 19.8692 25.6851C19.9167 25.676 19.9634 25.6626 20.0079 25.6451C20.0532 25.6275 20.0963 25.6057 20.1363 25.5804C20.1772 25.5551 20.215 25.5256 20.2492 25.4932C20.2833 25.4608 20.3145 25.425 20.3412 25.3863C20.3679 25.3483 20.3909 25.3076 20.4095 25.2647C20.428 25.2225 20.4429 25.1783 20.4518 25.1333C20.4614 25.0882 20.4666 25.0418 20.4666 24.9961C20.4666 24.9504 20.4614 24.904 20.4518 24.8583C20.4429 24.814 20.428 24.7697 20.4095 24.7269C20.3909 24.6846 20.3679 24.6439 20.3412 24.6059C20.3145 24.5672 20.2833 24.5313 20.2492 24.499C20.077 24.3351 19.8202 24.2606 19.5797 24.3063C19.5322 24.3155 19.4854 24.3288 19.4409 24.3464C19.3956 24.364 19.3526 24.3858 19.3125 24.4111C19.2717 24.4371 19.2338 24.4666 19.1997 24.499C19.1656 24.5313 19.1344 24.5672 19.1077 24.6059C19.081 24.6439 19.0579 24.6846 19.0394 24.7269C19.0208 24.7697 19.0067 24.814 18.9971 24.8583C18.9874 24.904 18.9822 24.9504 18.9822 24.9961C18.9822 25.0418 18.9874 25.0883 18.9971 25.1333C19.0067 25.1783 19.0208 25.2226 19.0394 25.2647Z" fill="white"/>
<path d="M22.9863 25.2647C23.0049 25.3076 23.0279 25.3484 23.0546 25.3863C23.0813 25.425 23.1125 25.4609 23.1467 25.4932C23.1808 25.5256 23.2187 25.5551 23.2595 25.5804C23.2996 25.6057 23.3426 25.6275 23.3879 25.6451C23.4324 25.6627 23.4792 25.676 23.5267 25.6852C23.5742 25.6943 23.6231 25.6992 23.6714 25.6992C23.7196 25.6992 23.7686 25.6943 23.8169 25.6852C23.8636 25.676 23.9104 25.6627 23.9556 25.6451C24.0002 25.6275 24.0432 25.6057 24.0833 25.5804C24.1241 25.5551 24.162 25.5256 24.1961 25.4932C24.2303 25.4609 24.2614 25.425 24.2889 25.3863C24.3156 25.3484 24.3386 25.3076 24.3572 25.2647C24.3757 25.2225 24.3898 25.1783 24.3995 25.1333C24.4091 25.0882 24.4136 25.0418 24.4136 24.9962C24.4136 24.9505 24.4091 24.904 24.3995 24.8583C24.3898 24.814 24.3757 24.7697 24.3572 24.7269C24.3386 24.6846 24.3156 24.6439 24.2889 24.6059C24.2614 24.5672 24.2303 24.5313 24.1961 24.499C24.162 24.4666 24.1241 24.4371 24.0833 24.4111C24.0432 24.3858 24.0002 24.364 23.9556 24.3464C23.9104 24.3288 23.8636 24.3155 23.8169 24.3063C23.7211 24.288 23.6224 24.288 23.5267 24.3063C23.4792 24.3155 23.4324 24.3288 23.3879 24.3464C23.3426 24.364 23.2996 24.3858 23.2595 24.4111C23.2187 24.4371 23.1808 24.4666 23.1467 24.499C23.1125 24.5313 23.0813 24.5672 23.0546 24.6059C23.0279 24.6439 23.0049 24.6846 22.9863 24.7269C22.9678 24.7697 22.9537 24.814 22.944 24.8583C22.9344 24.904 22.9292 24.9505 22.9292 24.9962C22.9292 25.0418 22.9344 25.0883 22.944 25.1333C22.9537 25.1783 22.9678 25.2226 22.9863 25.2647Z" fill="white"/>
<path d="M12.488 17.7724C12.5062 17.7888 12.5249 17.8047 12.545 17.8194C14.2493 19.0686 16.2642 19.7756 18.4027 19.881C18.4179 19.8818 18.4332 19.8825 18.4484 19.8832C18.5163 19.8863 18.5843 19.8887 18.6524 19.8906C18.6724 19.8912 18.6925 19.8919 18.7125 19.8924C18.7964 19.8942 18.8805 19.8954 18.9648 19.8954C19.0495 19.8954 19.1341 19.8942 19.2185 19.8924C19.2378 19.8919 19.257 19.8912 19.2762 19.8907C19.346 19.8888 19.4155 19.8863 19.485 19.8831C19.4983 19.8825 19.5116 19.8819 19.5249 19.8812C21.6985 19.7747 23.7403 19.0485 25.4603 17.7639C25.4839 17.7463 25.5061 17.7272 25.5271 17.7073C27.9261 15.8826 29.4649 13.0824 29.4649 9.94776C29.465 4.46253 24.7546 0 18.9648 0C13.175 0 8.46436 4.46253 8.46436 9.94769C8.46436 13.1197 10.0396 15.9496 12.488 17.7724ZM19.9289 18.4401C19.8829 18.4447 19.8368 18.4489 19.7906 18.4528C19.7395 18.4573 19.6886 18.4617 19.6373 18.4653C19.5483 18.4714 19.4591 18.4763 19.3696 18.48C19.3389 18.4813 19.3083 18.4823 19.2775 18.4833C19.1736 18.4866 19.0693 18.489 18.9647 18.489C18.8614 18.489 18.7585 18.4867 18.6558 18.4834C18.6255 18.4824 18.5953 18.4814 18.5652 18.4802C18.4798 18.4767 18.3946 18.472 18.3096 18.4663C18.2602 18.463 18.2109 18.4589 18.1617 18.4547C18.1084 18.4503 18.0552 18.4455 18.0021 18.4403C17.9428 18.4343 17.8836 18.4281 17.8245 18.421C17.8141 18.4197 17.8037 18.4183 17.7932 18.417C16.297 18.2323 14.915 17.6989 13.7412 16.9058V15.6327C13.7412 13.9574 14.6195 12.4737 15.9618 11.5702C16.8008 12.1913 17.8551 12.5629 18.9999 12.5629C20.1447 12.5629 21.1991 12.1914 22.038 11.5702C23.3803 12.4737 24.2586 13.9574 24.2586 15.6327V16.857H24.2587C23.0162 17.7138 21.5351 18.2776 19.9289 18.4401ZM18.9648 1.40625C23.9362 1.40625 27.9807 5.23787 27.9807 9.94769C27.9807 12.1008 27.1351 14.0701 25.7424 15.574C25.7227 13.5209 24.6758 11.6962 23.0657 10.5398C23.6189 9.78351 23.9441 8.86685 23.9441 7.87909C23.9441 7.64671 23.9259 7.41299 23.89 7.1844C23.8297 6.80036 23.4523 6.53535 23.0467 6.59244C22.6412 6.64961 22.3615 7.00722 22.4218 7.39133C22.447 7.55158 22.4597 7.71569 22.4597 7.87909C22.4597 8.60352 22.2099 9.27353 21.7882 9.8167C21.4461 10.2574 20.9906 10.6141 20.4627 10.8484C20.0182 11.0458 19.5226 11.1567 19.0001 11.1567C18.4776 11.1567 17.982 11.0458 17.5375 10.8484C17.0096 10.6141 16.5541 10.2574 16.212 9.8167C15.7903 9.27353 15.5405 8.60359 15.5405 7.87909C15.5405 6.07185 17.0925 4.60154 19.0001 4.60154C19.2627 4.60154 19.5242 4.62938 19.7774 4.68444C20.1774 4.77156 20.5752 4.53474 20.6667 4.15618C20.7583 3.77769 20.5087 3.40053 20.1092 3.31376C19.7473 3.23515 19.3742 3.19529 19.0002 3.19529C16.274 3.19529 14.0562 5.29644 14.0562 7.87909C14.0562 8.86685 14.3814 9.78351 14.9345 10.5398C13.3091 11.7073 12.2571 13.5557 12.2571 15.6327V15.6484C10.8227 14.1354 9.94881 12.1365 9.94881 9.94769C9.94873 5.23787 13.9933 1.40625 18.9648 1.40625Z" fill="white"/>
<path d="M21.3942 5.4401C21.4128 5.48229 21.4358 5.52307 21.4625 5.56104C21.4892 5.59971 21.5204 5.63557 21.5546 5.66792C21.5887 5.70103 21.6265 5.72986 21.6674 5.75581C21.7074 5.78112 21.7505 5.80299 21.7958 5.82056C21.8403 5.83814 21.8871 5.85143 21.9346 5.86057C21.9821 5.86971 22.031 5.87393 22.0793 5.87393C22.1275 5.87393 22.1765 5.86964 22.224 5.86057C22.2715 5.85143 22.3183 5.83814 22.3635 5.82056C22.4081 5.80299 22.4511 5.78112 22.4912 5.75581C22.532 5.72986 22.5699 5.70103 22.604 5.66792C22.6382 5.63557 22.6693 5.59971 22.696 5.56104C22.7228 5.52307 22.7458 5.48229 22.7643 5.4401C22.7829 5.39721 22.7977 5.35362 22.8066 5.30862C22.8163 5.26291 22.8215 5.21721 22.8215 5.17081C22.8215 5.1251 22.8163 5.07863 22.8066 5.0337C22.7977 4.9887 22.7829 4.94433 22.7643 4.90221C22.7458 4.86009 22.7228 4.81861 22.696 4.78064C22.6693 4.7419 22.6382 4.70604 22.604 4.6737C22.5699 4.64135 22.532 4.61182 22.4912 4.58651C22.4511 4.56127 22.4081 4.5394 22.3635 4.52182C22.3183 4.50424 22.2715 4.49095 22.224 4.48181C22.1283 4.46346 22.0303 4.46346 21.9346 4.48181C21.8871 4.49095 21.8403 4.50424 21.7958 4.52182C21.7505 4.5394 21.7074 4.56127 21.6674 4.58651C21.6265 4.61182 21.5887 4.64135 21.5546 4.6737C21.5204 4.70604 21.4892 4.7419 21.4625 4.78064C21.4358 4.81861 21.4128 4.86009 21.3942 4.90221C21.3757 4.94433 21.3616 4.9887 21.3519 5.0337C21.3423 5.0787 21.3371 5.1251 21.3371 5.17081C21.3371 5.21721 21.3423 5.26291 21.3519 5.30862C21.3616 5.35362 21.3757 5.39721 21.3942 5.4401Z" fill="white"/>
</svg>
